<svg width="24" height="24" viewBox="0 0 24 24" fill="none" xmlns="http://www.w3.org/2000/svg">
<path d="M14.2985 5.5207L15.2952 6.51743C15.4619 6.68413 15.688 6.77778 15.9237 6.77778H18.2222C18.6937 6.77778 19.1459 6.96508 19.4793 7.29848C19.8127 7.63187 20 8.08406 20 8.55556V16.5556C20 17.0271 19.8127 17.4792 19.4793 17.8126C19.1459 18.146 18.6937 18.3333 18.2222 18.3333H5.77778C5.30628 18.3333 4.8541 18.146 4.5207 17.8126C4.1873 17.4792 4 17.0271 4 16.5556V8.55556C4 8.08406 4.1873 7.63187 4.5207 7.29848C4.8541 6.96508 5.30628 6.77778 5.77778 6.77778H8.07626C8.312 6.77778 8.53809 6.68413 8.70479 6.51743L9.70152 5.5207C9.8666 5.35562 10.0626 5.22467 10.2783 5.13533C10.494 5.04598 10.7251 5 10.9586 5H13.0414C13.2749 5 13.506 5.04598 13.7217 5.13533C13.9374 5.22467 14.1334 5.35562 14.2985 5.5207Z" stroke="black" stroke-width="1.5" stroke-linecap="round" stroke-linejoin="round"/>
<path d="M12 15.6951C13.9637 15.6951 15.5556 14.1032 15.5556 12.1395C15.5556 10.1759 13.9637 8.58398 12 8.58398C10.0363 8.58398 8.44446 10.1759 8.44446 12.1395C8.44446 14.1032 10.0363 15.6951 12 15.6951Z" stroke="black" stroke-width="1.5" stroke-linecap="round" stroke-linejoin="round"/>
<path d="M17.3185 8.9043C17.5946 8.9043 17.8184 9.1282 17.8185 9.4043C17.8185 9.68043 17.5946 9.90429 17.3185 9.9043C17.0423 9.9043 16.8185 9.68044 16.8185 9.4043C16.8185 9.1282 17.0424 8.9043 17.3185 8.9043Z" stroke="black"/>
</svg>
