<svg width="24" height="24" viewBox="0 0 24 24" fill="none" xmlns="http://www.w3.org/2000/svg">
<path d="M15.8885 3.86914C17.0601 2.69757 18.9601 2.69757 20.1317 3.86914C21.3029 5.0407 21.3031 6.93986 20.1317 8.11133L10.3934 17.8486C9.71112 18.5309 8.87427 19.0391 7.95398 19.3291L4.07703 20.5508C3.69154 20.672 3.32808 20.3093 3.4491 19.9238L4.67078 16.0459C4.96073 15.1256 5.469 14.2888 6.15125 13.6064L15.8885 3.86914ZM18.8944 5.10547C18.4062 4.61739 17.614 4.61735 17.1259 5.10547L16.0653 6.16602C15.5776 6.6541 15.5776 7.44553 16.0653 7.93359C16.5534 8.42158 17.3457 8.4215 17.8339 7.93359L18.8944 6.87305C19.3822 6.38493 19.3823 5.59354 18.8944 5.10547Z" fill="#262633"/>
</svg>
