<svg width="16" height="16" viewBox="0 0 16 16" fill="none" xmlns="http://www.w3.org/2000/svg">
<path fill-rule="evenodd" clip-rule="evenodd" d="M6.28702 0C2.8148 0 0 2.81479 0 6.287C0 9.75922 2.8148 12.574 6.28702 12.574C7.65712 12.574 8.92486 12.1357 9.95769 11.3918L14.3993 15.8333L15.8333 14.3993L11.3918 9.95772C12.1358 8.92488 12.574 7.65712 12.574 6.287C12.574 2.81479 9.75925 0 6.28702 0ZM2.02807 6.287C2.02807 3.93486 3.93487 2.02807 6.28702 2.02807C8.63918 2.02807 10.546 3.93486 10.546 6.287C10.546 8.63915 8.63918 10.5459 6.28702 10.5459C3.93487 10.5459 2.02807 8.63915 2.02807 6.287Z" fill="#85889E"/>
</svg>
