<svg width="20" height="20" viewBox="0 0 20 20" fill="none" xmlns="http://www.w3.org/2000/svg">
<path fill-rule="evenodd" clip-rule="evenodd" d="M20 10C20 15.5228 15.5228 20 10 20C4.47715 20 0 15.5228 0 10C0 4.47715 4.47715 0 10 0C15.5228 0 20 4.47715 20 10ZM8.44975 7.65746C10.0272 6.86872 11.7792 8.35947 11.2531 10.0429L10.2851 13.1406C10.2105 13.3793 10.1017 13.6059 9.96219 13.8134L9.9114 13.8889C9.8583 13.9678 9.9636 14.0564 10.0323 13.9906L10.1427 13.8848C10.2831 13.7503 10.4481 13.6441 10.6286 13.5719C11.1414 13.3668 11.7233 13.6162 11.9285 14.129C12.1336 14.6418 11.8841 15.2237 11.3714 15.4289L10.8248 15.6475C9.26022 16.2733 7.67042 14.8024 8.17303 13.194L8.96531 10.6587C9.10113 10.2241 9.3205 9.82015 9.61111 9.4696C9.68334 9.38247 9.57791 9.2613 9.48163 9.3208L9 9.6184L8.44719 9.89481C7.95321 10.1418 7.35254 9.94157 7.10555 9.44759C6.85856 8.95362 7.05878 8.35294 7.55276 8.10595L8.44975 7.65746ZM10.7847 6.87988C11.6131 6.87988 12.2847 6.20831 12.2847 5.37988C12.2847 4.55146 11.6131 3.87988 10.7847 3.87988C9.95624 3.87988 9.28467 4.55146 9.28467 5.37988C9.28467 6.20831 9.95624 6.87988 10.7847 6.87988Z" fill="#40AEFD"/>
</svg>
