<svg width="14" height="14" viewBox="0 0 14 14" fill="none" xmlns="http://www.w3.org/2000/svg">
<path d="M12.9336 0.215187L13.0208 0.292893C13.3834 0.655523 13.4093 1.22737 13.0985 1.61989L13.0208 1.70711L8.07107 6.65685L13.0208 11.6066C13.3834 11.9692 13.4093 12.5411 13.0985 12.9336L13.0208 13.0208C12.6582 13.3834 12.0863 13.4093 11.6938 13.0985L11.6066 13.0208L6.65685 8.07107L1.70711 13.0208C1.34448 13.3834 0.772631 13.4093 0.380114 13.0985L0.292893 13.0208C-0.0697365 12.6582 -0.0956382 12.0863 0.215187 11.6938L0.292893 11.6066L5.24264 6.65685L0.292893 1.70711C-0.0697365 1.34448 -0.0956386 0.772632 0.215187 0.380114L0.292893 0.292893C0.655523 -0.0697365 1.22737 -0.0956382 1.61989 0.215187L1.70711 0.292893L6.65685 5.24264L11.6066 0.292893C11.9692 -0.0697365 12.5411 -0.0956386 12.9336 0.215187L13.0208 0.292893L12.9336 0.215187Z" fill="#262633"/>
</svg>
